<?xml version="1.0" encoding="UTF-8"?>
<svg id="katman_2" data-name="katman 2" xmlns="http://www.w3.org/2000/svg" viewBox="0 0 123.9 56.11">
  <defs>
    <style>
      .cls-1 {
        fill: #fff;
        stroke-width: 0px;
      }
    </style>
  </defs>
  <g id="Layer_1" data-name="Layer 1">
    <g>
      <path class="cls-1" d="M57.78,22.9l.11-.16c.16.04.34.07.55.07h8.05c1.28,0,2.89-.84,3.56-1.87l6.79-10.46s.03-.05.04-.08c.42-.3.48-.81.07-1.38l-6.29-7.36C70.03.75,68.45,0,67.16,0l-29.14.02c-1.28,0-1.81.75-1.16,1.66l6.29,7.34c.65.91,2.22,1.66,3.51,1.66h17.34l-3.29,5.06h-11.21c-1.28,0-2.88.85-3.53,1.89l-.57.88h-.2c-1.28,0-2.86.78-3.51,1.73l-15.9,23.2c-.65.95-.12,1.73,1.16,1.73h13.25c1.29,0,2.86-.78,3.51-1.73l7.1-10.35,7.53,10.28c.63.96,2.19,1.74,3.47,1.74h9.63c1.28,0,1.8-.77,1.15-1.72l-14.8-20.48Z"/>
      <path class="cls-1" d="M32.93,18.51h-2.77l4.91-7.84c.15-.23.25-.45.32-.66.31-.42.26-1.01-.21-1.66l-5.35-5.82c-.93-1.29-3.18-2.34-4.99-2.34h-14.11c-1.82,0-2.55,1.05-1.62,2.34l5.35,5.82c.93,1.28,3.17,2.34,5,2.34h2.8l-5.73,9.15c-.14.13-.26.27-.36.41L.28,43.43c-.65.95-.12,1.73,1.16,1.73h13.25c1.28,0,2.86-.78,3.51-1.73l15.9-23.2c.64-.95.12-1.73-1.17-1.73Z"/>
      <path class="cls-1" d="M122.29,0l-42.06.02c-1.28,0-1.81.75-1.16,1.66l6.28,7.34s.06.06.08.1l-13.11,20.18c-.17.24-.26.47-.29.68,0,0,0,.01,0,.02,0,.05,0,.1,0,.14,0,.06,0,.12,0,.18,0,.03.01.05.02.08.04.17.11.35.25.55l8.08,11.26c.06.08.13.16.2.24l.7.97c.65.93,2.23,1.68,3.51,1.68h29.14c1.28-.02,1.9-.83,1.37-1.81l-6.89-9.13c-.52-.98-2.01-1.78-3.29-1.78h-13.71l-1.03-1.44c-.66-.95-2.25-1.72-3.53-1.72h-1.61l12.62-18.57h17.6c1.28,0,2.74-.81,3.23-1.78l5.03-7.11c.49-.98-.15-1.77-1.44-1.77Z"/>
      <path class="cls-1" d="M58.74,47.96l-1.22,8.1h1.96l.17-1.37h1.26l.18,1.37h1.94l-1.22-8.1h-3.07ZM59.78,53.08l.46-3.56h.05l.48,3.56h-.99Z"/>
      <rect class="cls-1" x="64.1" y="47.96" width="1.94" height="8.1"/>
      <path class="cls-1" d="M69.88,47.96h-2.54v8.1h1.96v-3.02h.57c.23.01.36.24.36.53v2.49h1.96v-2.28c0-1.1-.25-1.44-1.1-1.54.82-.06,1.1-.32,1.1-1.43v-.91c0-1.56-.4-1.93-2.3-1.93ZM70.22,51.28c0,.29-.12.34-.34.34h-.59v-2.15h.57c.22,0,.36.03.36.32v1.49Z"/>
      <path class="cls-1" d="M80.14,51.34l-.75-.25c-.71-.24-.82-.29-.82-.81v-.49c0-.31.13-.36.37-.36h.11c.25,0,.37.05.37.36v.93h1.98v-.82c0-1.6-.42-1.98-2.35-1.98h-.11c-1.93,0-2.35.38-2.35,1.98v.96c0,1.19.56,1.41,1.38,1.72l.83.28c.48.2.65.2.65.64v.74c0,.3-.12.36-.37.36h-.15c-.24,0-.37-.06-.37-.36v-.94h-1.98v.83c0,1.6.42,1.98,2.35,1.98h.15c1.93,0,2.35-.38,2.35-1.98v-1.12c0-1.21-.49-1.39-1.3-1.67Z"/>
      <path class="cls-1" d="M85.29,47.96h-2.52v8.1h1.96v-2.51h.56c1.9,0,2.3-.37,2.3-1.93v-1.72c0-1.53-.4-1.93-2.3-1.93ZM85.64,51.72c0,.28-.14.32-.36.32h-.55v-2.58h.55c.22,0,.36.05.36.34v1.92Z"/>
      <path class="cls-1" d="M91.25,47.96h-2.54v8.1h1.96v-3.02h.57c.23.01.35.24.35.53v2.49h1.96v-2.28c0-1.1-.25-1.44-1.1-1.54.82-.06,1.1-.32,1.1-1.43v-.91c0-1.56-.4-1.93-2.3-1.93ZM91.59,51.28c0,.29-.12.34-.34.34h-.59v-2.15h.57c.22,0,.35.03.35.32v1.49Z"/>
      <rect class="cls-1" x="94.97" y="47.96" width="1.94" height="8.1"/>
      <polygon class="cls-1" points="101.32 51.79 101.31 51.79 100.13 47.96 98.24 47.96 98.24 56.06 100.11 56.06 100.11 52.5 100.12 52.5 101.11 56.06 103.11 56.06 103.11 47.96 101.32 47.96 101.32 51.79"/>
      <path class="cls-1" d="M107.16,47.92h-.2c-1.93,0-2.35.38-2.35,1.98v4.24c0,1.6.42,1.98,2.35,1.98h.2c1.93,0,2.35-.38,2.35-1.98v-2.58h-2.51v1.52h.53v1.18c0,.31-.12.35-.37.35h-.2c-.25,0-.37-.03-.37-.35v-4.44c0-.31.13-.37.37-.37h.2c.23,0,.37.06.37.37v.97h1.98v-.88c0-1.6-.42-1.98-2.35-1.98Z"/>
      <path class="cls-1" d="M114.47,51.34l-.75-.25c-.71-.24-.82-.29-.82-.81v-.49c0-.31.13-.36.37-.36h.11c.25,0,.37.05.37.36v.93h1.98v-.82c0-1.6-.42-1.98-2.35-1.98h-.11c-1.93,0-2.35.38-2.35,1.98v.96c0,1.19.56,1.41,1.38,1.72l.83.28c.48.2.65.2.65.64v.74c0,.3-.12.36-.37.36h-.15c-.24,0-.37-.06-.37-.36v-.94h-1.98v.83c0,1.6.42,1.98,2.35,1.98h.15c1.93,0,2.35-.38,2.35-1.98v-1.12c0-1.21-.49-1.39-1.3-1.67Z"/>
    </g>
  </g>
</svg>