<?xml version="1.0" encoding="UTF-8"?>
<svg id="katman_2" data-name="katman 2" xmlns="http://www.w3.org/2000/svg" xmlns:xlink="http://www.w3.org/1999/xlink" viewBox="0 0 457.89 111.55">
  <defs>
    <style>
      .cls-1 {
        fill: none;
      }

      .cls-1, .cls-2, .cls-3, .cls-4, .cls-5, .cls-6, .cls-7, .cls-8 {
        stroke-width: 0px;
      }

      .cls-2 {
        opacity: .69;
      }

      .cls-2, .cls-3, .cls-4, .cls-6, .cls-7, .cls-8 {
        fill: #fff;
      }

      .cls-9 {
        clip-path: url(#clippath);
      }

      .cls-3 {
        opacity: .15;
      }

      .cls-4 {
        opacity: .28;
      }

      .cls-5 {
        fill: #8e99a0;
      }

      .cls-7 {
        opacity: .5;
      }

      .cls-8 {
        opacity: .58;
      }
    </style>
    <clipPath id="clippath">
      <rect class="cls-1" x="21.94" width="414" height="111.55"/>
    </clipPath>
  </defs>
  <g id="Layer_1" data-name="Layer 1">
    <g class="cls-9">
      <g>
        <g>
          <path class="cls-6" d="M108.51,73.36c2.74,0,3.87-1.6,2.49-3.54l-13.44-15.73c-1.37-1.96-4.75-3.55-7.5-3.55l-62.29.04c-2.75.01-3.87,1.61-2.49,3.55l13.44,15.69c1.38,1.94,4.76,3.54,7.5,3.54h62.3Z"/>
          <path class="cls-6" d="M114.25,46.6c1.56,0,2.2-.91,1.41-2.01l-7.64-8.94c-.78-1.11-2.7-2.02-4.26-2.02l-35.39.02c-1.56,0-2.2.91-1.41,2.02l7.63,8.92c.78,1.1,2.7,2.01,4.26,2.01h35.4Z"/>
          <path class="cls-3" d="M113.63,21.86c1.05,0,1.48-.61.95-1.35l-5.14-6.01c-.52-.75-1.82-1.36-2.87-1.36h-23.82c-1.05.02-1.48.63-.95,1.37l5.14,6c.53.74,1.82,1.35,2.87,1.35h23.82Z"/>
          <path class="cls-3" d="M64.94,92.78c1.05,0,1.48-.61.95-1.35l-5.14-6.01c-.52-.75-1.82-1.36-2.87-1.36h-23.82c-1.05.02-1.48.63-.95,1.37l5.14,6c.53.74,1.82,1.35,2.87,1.35h23.82Z"/>
          <path class="cls-4" d="M161.59,98.41c2.37,0,3.35-1.38,2.15-3.06l-11.63-13.61c-1.19-1.69-4.11-3.07-6.48-3.07l-53.89.03c-2.38,0-3.35,1.39-2.15,3.07l11.62,13.58c1.19,1.68,4.11,3.06,6.48,3.06h53.89Z"/>
          <path class="cls-2" d="M76.48,86.75c2.37,0,3.35-1.38,2.15-3.06l-11.63-13.61c-1.19-1.69-4.11-3.07-6.48-3.07l-53.89.03c-2.38,0-3.35,1.39-2.15,3.07l11.62,13.58c1.19,1.68,4.11,3.06,6.48,3.06h53.89Z"/>
          <path class="cls-8" d="M162.39,83.38c1.56,0,2.2-.91,1.42-2.02l-7.66-8.96c-.78-1.11-2.71-2.02-4.27-2.02l-35.48.02c-1.56,0-2.2.92-1.42,2.02l7.65,8.94c.79,1.11,2.71,2.02,4.27,2.02h35.49Z"/>
          <path class="cls-8" d="M58.12,27.41c1.56,0,2.2-.91,1.42-2.02l-7.66-8.96c-.78-1.11-2.71-2.02-4.27-2.02l-35.48.02c-1.56,0-2.2.92-1.42,2.02l7.65,8.94c.79,1.11,2.71,2.02,4.27,2.02h35.49Z"/>
          <path class="cls-7" d="M47.75,55.09c1.56,0,2.2-.91,1.42-2.02l-7.66-8.96c-.78-1.11-2.71-2.02-4.27-2.02l-35.48.02c-1.56,0-2.2.92-1.42,2.02l7.65,8.94c.79,1.11,2.71,2.02,4.27,2.02h35.49Z"/>
          <path class="cls-5" d="M120.15,64.18c.94,0,1.33-.55.86-1.22l-4.62-5.41c-.47-.67-1.63-1.22-2.58-1.22h-21.43c-.95.02-1.33.57-.86,1.23l4.62,5.4c.47.67,1.64,1.22,2.58,1.22h21.43Z"/>
        </g>
        <g>
          <path class="cls-6" d="M349.38,73.36c-2.74,0-3.87-1.6-2.49-3.54l13.44-15.73c1.37-1.96,4.75-3.55,7.5-3.55l62.29.04c2.75.01,3.87,1.61,2.49,3.55l-13.44,15.69c-1.38,1.94-4.76,3.54-7.5,3.54h-62.3Z"/>
          <path class="cls-6" d="M343.64,46.6c-1.56,0-2.2-.91-1.41-2.01l7.64-8.94c.78-1.11,2.7-2.02,4.26-2.02l35.39.02c1.56,0,2.2.91,1.41,2.02l-7.63,8.92c-.78,1.1-2.7,2.01-4.26,2.01h-35.4Z"/>
          <path class="cls-3" d="M344.26,21.86c-1.05,0-1.48-.61-.95-1.35l5.14-6.01c.52-.75,1.82-1.36,2.87-1.36h23.82c1.05.02,1.48.63.95,1.37l-5.14,6c-.53.74-1.82,1.35-2.87,1.35h-23.82Z"/>
          <path class="cls-3" d="M392.94,92.78c-1.05,0-1.48-.61-.95-1.35l5.14-6.01c.52-.75,1.82-1.36,2.87-1.36h23.82c1.05.02,1.48.63.95,1.37l-5.14,6c-.53.74-1.82,1.35-2.87,1.35h-23.82Z"/>
          <path class="cls-4" d="M296.3,98.41c-2.37,0-3.35-1.38-2.15-3.06l11.63-13.61c1.19-1.69,4.11-3.07,6.48-3.07l53.89.03c2.38,0,3.35,1.39,2.15,3.07l-11.62,13.58c-1.19,1.68-4.11,3.06-6.48,3.06h-53.89Z"/>
          <path class="cls-2" d="M381.41,86.75c-2.37,0-3.35-1.38-2.15-3.06l11.63-13.61c1.19-1.69,4.11-3.07,6.48-3.07l53.89.03c2.38,0,3.35,1.39,2.15,3.07l-11.62,13.58c-1.19,1.68-4.11,3.06-6.48,3.06h-53.89Z"/>
          <path class="cls-8" d="M295.5,83.38c-1.56,0-2.2-.91-1.42-2.02l7.66-8.96c.78-1.11,2.71-2.02,4.27-2.02l35.48.02c1.56,0,2.2.92,1.42,2.02l-7.65,8.94c-.79,1.11-2.71,2.02-4.27,2.02h-35.49Z"/>
          <path class="cls-8" d="M399.77,27.41c-1.56,0-2.2-.91-1.42-2.02l7.66-8.96c.78-1.11,2.71-2.02,4.27-2.02l35.48.02c1.56,0,2.2.92,1.42,2.02l-7.65,8.94c-.79,1.11-2.71,2.02-4.27,2.02h-35.49Z"/>
          <path class="cls-7" d="M410.14,55.09c-1.56,0-2.2-.91-1.42-2.02l7.66-8.96c.78-1.11,2.71-2.02,4.27-2.02l35.48.02c1.56,0,2.2.92,1.42,2.02l-7.65,8.94c-.79,1.11-2.71,2.02-4.27,2.02h-35.49Z"/>
          <path class="cls-5" d="M337.73,64.18c-.94,0-1.33-.55-.86-1.22l4.62-5.41c.47-.67,1.63-1.22,2.58-1.22h21.43c.95.02,1.33.57.86,1.23l-4.62,5.4c-.47.67-1.64,1.22-2.58,1.22h-21.43Z"/>
        </g>
      </g>
    </g>
  </g>
</svg>