<?xml version="1.0" encoding="UTF-8"?>
<svg id="katman_2" data-name="katman 2" xmlns="http://www.w3.org/2000/svg" viewBox="0 0 262.84 98.69">
  <defs>
    <style>
      .cls-1 {
        fill: #e3d6b6;
        stroke-width: 0px;
      }
    </style>
  </defs>
  <g id="Layer_1" data-name="Layer 1">
    <path class="cls-1" d="M227.14,96.15h35.7l-33.57-48.07L261.03,0h-33.07l-21.63,34.41V0S52.2,0,52.2,0C33.71,0,19.96,5.55,10.95,16.64,3.65,25.46,0,36.74,0,50.49s4.79,25.6,14.36,34.42c9.45,8.73,21.89,13.32,37.33,13.76v.03h39.97l-.14-48.2h-29.23v26.03c-1.88,0-4.31,0-6.54,0-7.78.02-13.82-2.3-18.13-6.9-4.32-4.6-6.47-11.21-6.47-19.84s2.32-14.89,6.97-19.63c3.77-3.85,8.7-6.12,14.79-6.85h68.22v72.84h29.3V23.3h26.61v72.84h29.3v-33.49s20.8,33.49,20.8,33.49Z"/>
  </g>
</svg>