<?xml version="1.0" encoding="UTF-8"?>
<svg id="katman_2" data-name="katman 2" xmlns="http://www.w3.org/2000/svg" viewBox="0 0 453.83 181.01">
  <defs>
    <style>
      .cls-1 {
        fill: #53585f;
        fill-rule: evenodd;
        stroke-width: 0px;
      }
    </style>
  </defs>
  <g id="Layer_1" data-name="Layer 1">
    <path class="cls-1" d="M432.88,174.23v-16.7h3.63v2.42c1.28-1.59,3.29-2.84,5.43-2.84v3.6c-.31-.07-.66-.1-1.1-.1-1.56,0-3.6,1.04-4.32,2.24v11.38h-3.63ZM421.06,160.09c-3.08,0-4.53,2.38-4.67,4.39h9.41c-.11-1.97-1.45-4.39-4.73-4.39ZM412.62,165.86c0-4.84,3.53-8.75,8.47-8.75s8.2,3.8,8.2,9.06v.9h-12.87c.28,2.49,2.15,4.6,5.29,4.6,1.66,0,3.56-.66,4.77-1.87l1.66,2.39c-1.69,1.59-4.15,2.45-6.77,2.45-5.05,0-8.75-3.49-8.75-8.78ZM405.29,151.17h3.64v23.06h-3.64v-23.06ZM398.13,174.23l-5.08-6.92-2.35,2.42v4.5h-3.63v-23.06h3.63v14.42l7.37-8.05h4.49l-6.91,7.57,7.05,9.13h-4.57ZM380.57,155.49c-1.25,0-2.25-1-2.25-2.25s1-2.24,2.25-2.24,2.24,1,2.24,2.24-1,2.25-2.24,2.25ZM378.73,157.53h3.63v16.7h-3.63v-16.7ZM368.46,170.32v-9.64h-2.76v-3.15h2.76v-4.57h3.64v4.57h3.39v3.15h-3.39v8.75c0,1.14.55,2.01,1.59,2.01.69,0,1.31-.31,1.59-.63l.86,2.77c-.65.59-1.73,1.07-3.39,1.07-2.84,0-4.29-1.52-4.29-4.32ZM349.97,172.02l1.66-2.59c1.18,1.21,3.49,2.32,5.64,2.32s3.32-.9,3.32-2.21c0-3.29-10.1-.94-10.1-7.37,0-2.73,2.36-5.05,6.57-5.05,2.84,0,4.98,1,6.46,2.32l-1.52,2.56c-1-1.1-2.84-2.01-4.94-2.01-1.9,0-3.08.9-3.08,2.08,0,2.94,10.09.73,10.09,7.36,0,2.98-2.45,5.22-6.95,5.22-2.87,0-5.43-.93-7.15-2.63ZM343.04,170.43v-2.56c-.86-1.14-2.42-1.73-3.97-1.73-2.04,0-3.6,1.21-3.6,3.01s1.56,3.01,3.6,3.01c1.56,0,3.11-.59,3.97-1.73ZM343.04,174.23v-1.84c-1.24,1.45-3.21,2.25-5.43,2.25-2.69,0-5.77-1.87-5.77-5.53,0-3.87,3.04-5.46,5.77-5.46,2.28,0,4.19.73,5.43,2.14v-2.49c0-1.93-1.62-3.11-3.91-3.11-1.87,0-3.53.69-4.94,2.15l-1.52-2.53c1.93-1.87,4.36-2.7,7.02-2.7,3.74,0,6.98,1.56,6.98,6.01v11.1h-3.63ZM315.49,174.23v-23.06h4.05v19.5h10.16v3.56h-14.21ZM298.4,151.17h3.63v23.06h-3.63v-23.06ZM286.58,160.09c-3.08,0-4.53,2.38-4.67,4.39h9.4c-.1-1.97-1.45-4.39-4.73-4.39ZM278.14,165.86c0-4.84,3.53-8.75,8.47-8.75s8.2,3.8,8.2,9.06v.9h-12.86c.28,2.49,2.14,4.6,5.29,4.6,1.66,0,3.56-.66,4.77-1.87l1.66,2.39c-1.69,1.59-4.15,2.45-6.77,2.45-5.04,0-8.75-3.49-8.75-8.78ZM261.58,177.51c.38.17.97.28,1.39.28,1.17,0,1.94-.35,2.42-1.45l.83-1.9-6.88-16.91h3.91l4.88,12.52,4.88-12.52h3.87l-8.05,19.7c-1.14,2.84-3.11,3.74-5.71,3.77-.52,0-1.56-.11-2.03-.24l.51-3.25ZM255.25,155.49c-1.25,0-2.25-1-2.25-2.25s1-2.24,2.25-2.24,2.25,1,2.25,2.24-1.01,2.25-2.25,2.25ZM253.42,157.53h3.63v16.7h-3.63v-16.7ZM241.42,174.23v-16.7h3.63v2.42c1.28-1.59,3.29-2.84,5.43-2.84v3.6c-.31-.07-.66-.1-1.1-.1-1.56,0-3.6,1.04-4.32,2.24v11.38h-3.63ZM231.15,170.32v-9.64h-2.77v-3.15h2.77v-4.57h3.63v4.57h3.39v3.15h-3.39v8.75c0,1.14.55,2.01,1.59,2.01.69,0,1.31-.31,1.59-.63l.86,2.77c-.65.59-1.72,1.07-3.39,1.07-2.84,0-4.28-1.52-4.28-4.32ZM212.65,172.02l1.66-2.59c1.18,1.21,3.49,2.32,5.64,2.32s3.32-.9,3.32-2.21c0-3.29-10.09-.94-10.09-7.37,0-2.73,2.35-5.05,6.57-5.05,2.84,0,4.98,1,6.46,2.32l-1.52,2.56c-1-1.1-2.84-2.01-4.95-2.01-1.9,0-3.08.9-3.08,2.08,0,2.94,10.09.73,10.09,7.36,0,2.98-2.45,5.22-6.94,5.22-2.87,0-5.43-.93-7.16-2.63ZM205.74,174.23v-2.21c-1.18,1.31-3.25,2.63-5.88,2.63-3.6,0-5.39-1.9-5.39-5.29v-11.83h3.63v10.48c0,2.59,1.31,3.42,3.39,3.42,1.83,0,3.43-1.07,4.26-2.18v-11.72h3.63v16.7h-3.63ZM198.4,155.22c-1.13,0-2.04-.91-2.04-2.02s.91-2.02,2.04-2.02,2.04.9,2.04,2.02-.91,2.02-2.04,2.02ZM205.64,155.22c-1.12,0-2.02-.91-2.02-2.02s.91-2.02,2.02-2.02,2.02.9,2.02,2.02-.9,2.02-2.02,2.02ZM186.13,169.18v-6.61c-.79-1.24-2.59-2.24-4.29-2.24-2.9,0-4.73,2.32-4.73,5.53s1.83,5.57,4.73,5.57c1.7,0,3.49-1,4.29-2.25ZM186.13,174.23v-2.28c-1.28,1.66-3.18,2.69-5.36,2.69-4.25,0-7.39-3.25-7.39-8.78s3.11-8.75,7.39-8.75c2.11,0,4.05.94,5.36,2.73v-8.68h3.63v23.06h-3.63ZM166.04,174.23v-10.44c0-2.63-1.35-3.46-3.39-3.46-1.84,0-3.43,1.1-4.29,2.21v11.69h-3.63v-16.7h3.63v2.24c1.1-1.31,3.29-2.66,5.91-2.66,3.6,0,5.39,1.94,5.39,5.36v11.76h-3.63ZM134.88,174.23v-23.06h15.8v3.56h-11.76v5.95h11.51v3.56h-11.51v6.43h11.76v3.56h-15.8ZM114.03,160.09c-3.08,0-4.53,2.38-4.67,4.39h9.4c-.1-1.97-1.45-4.39-4.73-4.39ZM105.59,165.86c0-4.84,3.53-8.75,8.47-8.75s8.2,3.8,8.2,9.06v.9h-12.86c.28,2.49,2.14,4.6,5.29,4.6,1.66,0,3.56-.66,4.77-1.87l1.66,2.39c-1.69,1.59-4.15,2.45-6.77,2.45-5.04,0-8.75-3.49-8.75-8.78ZM93.59,174.23l-6.81-16.7h3.91l4.88,12.51,4.87-12.51h3.88l-6.81,16.7h-3.91ZM73.78,155.49c-1.25,0-2.25-1-2.25-2.25s1-2.24,2.25-2.24,2.24,1,2.24,2.24-1,2.25-2.24,2.25ZM71.95,157.53h3.63v16.7h-3.63v-16.7ZM63.61,170.43v-2.56c-.86-1.14-2.42-1.73-3.98-1.73-2.03,0-3.59,1.21-3.59,3.01s1.56,3.01,3.59,3.01c1.56,0,3.12-.59,3.98-1.73ZM63.61,174.23v-1.84c-1.25,1.45-3.22,2.25-5.43,2.25-2.69,0-5.78-1.87-5.78-5.53,0-3.87,3.04-5.46,5.78-5.46,2.28,0,4.18.73,5.43,2.14v-2.49c0-1.93-1.62-3.11-3.91-3.11-1.87,0-3.53.69-4.95,2.15l-1.52-2.53c1.93-1.87,4.36-2.7,7.02-2.7,3.74,0,6.98,1.56,6.98,6.01v11.1h-3.63ZM41.38,174.23v-16.7h3.63v2.42c1.27-1.59,3.28-2.84,5.43-2.84v3.6c-.31-.07-.66-.1-1.11-.1-1.56,0-3.59,1.04-4.32,2.24v11.38h-3.63ZM34.88,155.49c-1.24,0-2.24-1-2.24-2.25s1-2.24,2.24-2.24,2.25,1,2.25,2.24-1,2.25-2.25,2.25ZM33.05,157.53h3.63v16.7h-3.63v-16.7ZM11.88,174.23v-3.29l11.76-16.22h-11.76v-3.56h17.05v3.25l-11.83,16.25h12.06v3.56H11.88ZM125.37,124.23c.64,2.2,1.25,4.41,1.9,6.74h-5.52c-.98,0-1.94.03-2.91-.02-.2-.01-.55-.25-.55-.38-.03-3.17-.02-6.33-.02-9.6.26.08.45.12.64.2,1.96.83,3.91,1.67,5.87,2.53.24.1.53.3.59.52ZM205.94,31.37c-.94-3.29-1.85-6.59-2.81-10.03.63,0,1.14,0,1.63,0,2.43,0,4.85,0,7.27,0,.43,0,.68.08.67.63-.01,4-.02,8.01-.01,12.03,0,.14-.05.26-.08.51-1.04-.44-2.03-.86-3.03-1.29-1.04-.45-2.1-.88-3.13-1.35-.2-.1-.46-.29-.51-.5ZM191.86,29.38c2.27-2.11,4.52-4.24,6.79-6.37.16-.16.36-.29.6-.51.26.92.5,1.75.74,2.59.82,2.99,1.66,5.96,2.45,8.94.15.55.42.86.92,1.06,2.85,1.22,5.71,2.47,8.57,3.66.56.24.77.52.76,1.16-.02,5.96-.03,11.93,0,17.88,0,.7-.19,1.19-.7,1.6-.39.32-.76.69-1.27,1.15-.57-2.04-1.09-3.93-1.62-5.81-.61-2.17-1.22-4.33-1.8-6.51-.15-.57-.44-.88-.95-1.11-3.64-1.53-7.26-3.1-10.89-4.63-.5-.21-.76-.49-.91-1.04-.98-3.64-1.97-7.27-2.99-10.88-.13-.51-.1-.82.29-1.18ZM136.72,114.15c1.13,4.13,2.3,8.25,3.44,12.38.05.17-.05.46-.18.59-1.26,1.2-2.53,2.4-3.81,3.57-.18.17-.48.26-.74.26-1.11.03-2.22-.02-3.32.03-.53.02-.73-.19-.86-.68-.77-2.87-1.6-5.72-2.35-8.6-.17-.67-.52-1.03-1.14-1.29-2.94-1.23-5.88-2.51-8.83-3.76-.51-.2-.69-.48-.68-1.06.02-5.41.03-10.82,0-16.23,0-.53.14-.9.53-1.25.69-.59,1.34-1.23,2.1-1.94.35,1.23.67,2.36.98,3.47.72,2.6,1.45,5.17,2.14,7.76.14.55.41.85.91,1.07,3.66,1.54,7.29,3.12,10.95,4.66.47.21.72.48.86,1.01ZM154.5,112.23c-1.07-3.8-2.13-7.61-3.17-11.43-.18-.68-.51-1.09-1.16-1.36-3.56-1.48-7.08-3.03-10.64-4.52-.6-.24-.89-.61-1.07-1.25-.94-3.52-1.91-7.02-2.88-10.53-.09-.34-.2-.64.14-.97,2.43-2.24,4.84-4.53,7.25-6.8.06-.07.15-.1.28-.19.12.4.24.76.34,1.12.92,3.34,1.86,6.68,2.76,10.03.16.63.48.96,1.05,1.21,3.62,1.53,7.25,3.11,10.87,4.64.46.19.69.46.82.95,1.13,4.11,2.28,8.21,3.42,12.32.04.17-.03.47-.15.59-2.29,2.18-4.58,4.33-6.88,6.48-.55.52-.8.42-1-.3ZM196.12,58.77c-.16-.62-.46-.96-1.04-1.2-3.61-1.53-7.21-3.09-10.82-4.62-.5-.21-.77-.51-.91-1.05-.98-3.61-1.97-7.21-2.98-10.8-.15-.54-.07-.87.33-1.25,2.28-2.1,4.53-4.23,6.8-6.36.15-.14.31-.26.55-.46.3,1.09.59,2.09.87,3.1.76,2.74,1.54,5.49,2.28,8.24.17.64.46,1.01,1.07,1.26,3.59,1.51,7.16,3.07,10.76,4.58.51.21.81.51.96,1.09,1.07,3.94,2.19,7.89,3.26,11.84.07.25-.01.69-.19.86-2.36,2.25-4.75,4.49-7.12,6.72-.08.08-.19.14-.37.28-.11-.33-.23-.6-.29-.88-1.07-3.78-2.12-7.57-3.16-11.36ZM147.84,103.49c1.2,4.17,2.37,8.34,3.51,12.52.05.17-.05.47-.18.59-2.28,2.17-4.58,4.33-6.89,6.48-.51.48-.79.37-1-.36-1.07-3.81-2.14-7.62-3.16-11.44-.19-.69-.52-1.1-1.16-1.37-3.6-1.5-7.18-3.06-10.77-4.57-.47-.2-.73-.47-.87-1-.97-3.58-1.99-7.16-2.95-10.74-.07-.26,0-.69.17-.86,2.41-2.31,4.85-4.6,7.28-6.89.05-.04.12-.06.26-.12.38,1.32.74,2.64,1.1,3.95.67,2.4,1.35,4.8,1.98,7.2.15.57.42.88.96,1.1,3.65,1.54,7.3,3.11,10.93,4.71.31.14.68.46.77.78ZM188.06,80.62c-1.07-3.8-2.11-7.61-3.15-11.43-.16-.57-.43-.9-.95-1.11-3.64-1.54-7.26-3.11-10.88-4.64-.5-.21-.77-.48-.92-1.04-.97-3.61-1.96-7.21-2.98-10.8-.12-.44-.14-.76.23-1.1,2.39-2.22,4.77-4.45,7.15-6.7.07-.06.14-.11.29-.21.09.25.17.47.23.69.97,3.53,1.97,7.06,2.91,10.6.17.66.51,1,1.09,1.25,3.64,1.53,7.26,3.09,10.88,4.64.43.17.66.43.79.89,1.09,3.98,2.19,7.95,3.31,11.91.11.43.12.73-.24,1.07-2.31,2.14-4.6,4.32-6.9,6.46-.14.14-.32.24-.57.41-.11-.35-.21-.61-.29-.88ZM162.54,90.32c-.17-.66-.48-1.06-1.1-1.32-3.62-1.51-7.21-3.08-10.83-4.6-.48-.2-.73-.48-.86-1-.98-3.61-1.99-7.2-2.96-10.81-.07-.26-.03-.72.14-.87,2.41-2.32,4.85-4.59,7.29-6.88.05-.05.11-.07.29-.16.55,2.01,1.1,3.97,1.63,5.92.5,1.78.99,3.56,1.47,5.34.14.57.42.89.95,1.1,3.65,1.55,7.3,3.13,10.95,4.67.45.19.69.46.83.95,1.1,4.04,2.23,8.08,3.36,12.11.11.38.07.61-.21.87-2.28,2.14-4.55,4.29-6.84,6.44-.17.16-.4.26-.69.43-.11-.34-.2-.57-.27-.82-1.05-3.79-2.11-7.57-3.15-11.36ZM176.89,91.22c-1.07-3.81-2.14-7.61-3.17-11.43-.17-.64-.47-1.01-1.07-1.26-3.64-1.53-7.25-3.1-10.88-4.64-.42-.19-.67-.42-.79-.9-.98-3.65-2-7.29-2.99-10.95-.08-.28,0-.76.19-.94,2.37-2.28,4.78-4.53,7.18-6.78.06-.06.14-.1.32-.22.73,2.6,1.43,5.12,2.12,7.63.33,1.22.69,2.45,1,3.68.15.59.45.94,1,1.16,3.64,1.54,7.25,3.11,10.88,4.64.48.2.73.47.87.99,1.09,3.98,2.19,7.94,3.31,11.91.13.5.05.78-.31,1.11-2.24,2.07-4.46,4.18-6.68,6.27-.65.6-.75.57-.98-.27ZM79.46,20.88c-5.54,0-10.02-4.66-10.02-10.43S73.92.02,79.46.02s10.01,4.66,10.01,10.43-4.48,10.43-10.01,10.43ZM29.22,20.86c-5.53,0-10.01-4.66-10.01-10.43S23.69,0,29.22,0s10,4.66,10,10.43-4.48,10.43-10,10.43ZM70.6,76.55c0-10.55-7.16-19.08-16.02-19.08s-16.02,8.53-16.02,19.08,7.16,19.07,16.02,19.07,16.02-8.53,16.02-19.07ZM54.58,132.92C24.4,132.92,0,107.64,0,76.37S24.4,19.81,54.58,19.81s54.58,25.28,54.58,56.56-24.4,56.56-54.58,56.56ZM328.08,22.37l-33.83,53.77,30.23,55.03h-41.52s-16.62-35.21-16.62-35.21v35.19s-39.75-.01-39.75-.01l.03-108.8h39.75s-.01,34.63-.01,34.63l17.82-34.61,43.91.02ZM399.43,90.62l-7.33-28.05-8.99,28.04h16.32ZM453.83,131.2l-41.55-.02-5.33-13.6h-32.63s-4.75,13.59-4.75,13.59l-40.87-.02,39.12-108.78,45.69.02,40.32,108.81ZM174.19,99.09h39.65s-.01,31.66-.01,31.66l-73.56-.02,33.91-31.64ZM163.68,51.53l-47.05-.02v-29.89s79.78.02,79.78.02l-32.74,29.88Z"/>
  </g>
</svg>