<?xml version="1.0" encoding="UTF-8"?>
<svg id="katman_2" data-name="katman 2" xmlns="http://www.w3.org/2000/svg" xmlns:xlink="http://www.w3.org/1999/xlink" viewBox="0 0 425 292">
  <defs>
    <style>
      .cls-1 {
        fill: url(#linear-gradient);
      }

      .cls-1, .cls-2 {
        stroke-width: 0px;
      }

      .cls-2 {
        fill: none;
      }

      .cls-3 {
        clip-path: url(#clippath);
      }
    </style>
    <clipPath id="clippath">
      <rect class="cls-2" width="425" height="292"/>
    </clipPath>
    <linearGradient id="linear-gradient" x1="-17.62" y1="149.58" x2="467.41" y2="149.58" gradientUnits="userSpaceOnUse">
      <stop offset="0" stop-color="#53585f"/>
      <stop offset=".61" stop-color="#fff"/>
    </linearGradient>
  </defs>
  <g id="Layer_1" data-name="Layer 1">
    <g class="cls-3">
      <path class="cls-1" d="M273.27,188.28c1.54-2.91,1.55-5.18.26-8.08-9.79-22.18-19.38-44.4-29.16-66.61-1.53-3.36-1.38-6.15.41-9.41,3.8-6.84,7.37-13.81,11.03-20.69,7.43-14.15,14.91-28.35,22.63-43.08-1.28-.18-1.8-.36-2.34-.33-20.23-.04-40.49-.12-60.7.09-1.62,0-3.98,1.77-4.8,3.37-11.01,20.49-21.77,41.08-32.78,61.57-1.41,2.68-1.33,4.77-.18,7.36,9.77,22.21,19.32,44.47,29.13,66.63,1.6,3.65,1.41,6.58-.51,10.16-11.47,21.44-22.7,42.97-33.99,64.49-2.52,4.76-2.2,5.33,3.24,5.36,18.77.04,37.58-.05,56.35.08,3.01.07,4.57-.86,6.07-3.63,11.64-22.52,23.46-44.87,35.33-67.27ZM179.03,187.77c1.43-2.79,1.48-5.02.29-7.75-9.86-22.29-19.52-44.71-29.36-67.03-1.45-3.19-1.36-5.82.41-8.96,5.38-9.98,10.63-20,15.93-30.07,5.85-11.01,11.65-22.07,17.65-33.43-1.17-.3-1.53-.46-1.98-.44-20.52-.09-41.04-.18-61.6.05-1.44-.02-3.53,1.84-4.32,3.32-10.86,20.24-21.48,40.59-32.29,60.87-1.59,2.87-1.66,5.21-.35,8.08,9.75,22.05,19.2,44.23,29.06,66.25,1.7,3.82,1.37,6.9-.64,10.57-11.34,21.3-22.52,42.69-33.79,64.1-.73,1.41-1.3,2.83-2.22,4.81,2,.42,3.47.95,4.93.94,19.26.06,38.5-.03,57.69.02,2.36.04,3.49-.8,4.62-3,11.91-22.81,23.9-45.62,35.99-68.34ZM367.83,188.28c1.34-2.61,1.44-4.7.24-7.34-9.73-22.16-19.34-44.45-29.18-66.58-1.58-3.58-1.63-6.53.36-10.18,10.72-19.82,21.09-39.81,31.63-59.72.66-1.25,1.21-2.56,1.87-4.07-1.12-.17-1.64-.26-2.23-.27-20.07-.02-40.16-.02-60.21-.16-3.08,0-4.32,1.5-5.62,3.97-10.61,20.33-21.35,40.63-32.2,60.87-1.68,3.14-1.61,5.52-.26,8.53,9.75,22.14,19.34,44.45,29.13,66.63,1.4,3.14,1.24,5.76-.43,8.99-11.43,21.39-22.74,42.93-34.01,64.42-.77,1.54-1.43,3.15-2.4,5.17,1.8.27,3.04.59,4.25.57,19.35.06,38.74-.02,58.1.13,3.08,0,4.27-1.36,5.58-3.75,11.73-22.44,23.46-44.87,35.38-67.23ZM426.44,256.01c11.85-22.19,23.49-44.54,35.31-66.71,1.77-3.24,1.63-5.82.28-8.91-9.72-21.9-19.13-43.94-28.86-65.84-1.67-3.67-1.41-6.58.51-10.16,8.29-15.43,16.36-30.99,24.55-46.48,3-5.73,5.96-11.4,9.18-17.54-1.89-.09-3.12-.23-4.4-.23-19.13-.03-38.18.06-57.22-.15-3.39-.03-5.17,1.14-6.74,4.16-10.61,20.33-21.3,40.67-32.16,60.91-1.66,3.03-1.72,5.46-.35,8.53,9.7,22.01,19.25,44.19,28.95,66.19,1.58,3.49,1.5,6.31-.4,9.78-11.36,21.32-22.54,42.71-33.72,64.11-.86,1.55-1.52,3.25-2.4,5.18,1.37.18,2.07.34,2.79.31,20.07.02,40.18.09,60.25-.07,1.48-.03,3.69-1.65,4.44-3.08ZM84.59,187.48c1.48-2.75,1.59-4.96.35-7.73-9.77-22.12-19.36-44.43-29.13-66.54-1.51-3.48-1.54-6.35.38-9.84,10.11-18.8,19.96-37.71,29.93-56.55,1.06-2.03,2.03-4.15,3.17-6.45-.99-.13-1.53-.37-2.07-.34-20.34,0-40.76.07-61.1-.11-2.92.01-3.67,1.8-4.7,3.72C10.99,63.41.55,83.2-10.06,102.91c-1.9,3.56-2.14,6.45-.49,10.05,9.63,21.63,18.86,43.42,28.56,65.07,1.77,3.93,1.5,7.12-.55,10.93-11.43,21.48-22.69,42.97-33.92,64.5-2.16,4.11-1.43,5.6,3.19,5.6,19.33.08,38.66.07,58.05,0,1.08-.05,2.64-1.07,3.19-2.02,12.24-23.16,24.37-46.38,36.61-69.54Z"/>
    </g>
  </g>
</svg>