<?xml version="1.0" encoding="UTF-8"?>
<svg xmlns="http://www.w3.org/2000/svg" xmlns:xlink="http://www.w3.org/1999/xlink" viewBox="0 0 414 896">
  <defs>
    <style>
      .cls-1 {
        isolation: isolate;
      }

      .cls-2 {
        fill: url(#linear-gradient);
        mix-blend-mode: multiply;
        stroke-width: 0px;
      }
    </style>
    <linearGradient id="linear-gradient" x1="0" y1="448" x2="414" y2="448" gradientUnits="userSpaceOnUse">
      <stop offset="0" stop-color="#98c93e"/>
      <stop offset="1" stop-color="#3bb04a"/>
    </linearGradient>
  </defs>
  <g class="cls-1">
    <g id="katman_2" data-name="katman 2">
      <g id="Layer_1" data-name="Layer 1">
        <polygon class="cls-2" points="386.62 0 368.73 .05 368.73 0 354.21 0 341.35 0 336.84 0 329.73 0 329.26 0 309.46 0 308.93 0 301.88 0 291.57 0 291.45 0 284.46 0 283.98 0 277.05 0 269.46 0 266.97 0 264.19 0 256.6 0 252.57 0 252.1 0 246.17 0 244.99 0 234.56 0 231.77 0 224.72 0 224.19 0 221.7 0 214.29 0 207.3 0 207.18 0 206.82 0 206.7 0 199.71 0 192.3 0 189.81 0 189.28 0 182.23 0 179.44 0 169.01 0 167.83 0 161.9 0 161.43 0 157.4 0 149.81 0 147.03 0 144.54 0 136.95 0 130.02 0 129.54 0 122.55 0 122.43 0 112.12 0 105.07 0 104.54 0 84.74 0 84.27 0 77.16 0 72.65 0 59.79 0 45.27 0 45.27 .05 27.38 0 0 0 0 896 42.79 896 45.27 896 77.16 896 84.74 896 88.06 896 119.95 896 122.43 896 127.53 896 130.02 896 161.9 896 164.03 896 165.23 896 172.81 896 204.69 896 206.82 896 207.18 896 209.31 896 241.19 896 248.77 896 249.97 896 252.1 896 283.98 896 286.47 896 291.57 896 294.05 896 325.94 896 329.26 896 336.84 896 368.73 896 371.21 896 414 896 414 0 386.62 0"/>
      </g>
    </g>
  </g>
</svg>