<?xml version="1.0" encoding="UTF-8"?>
<svg id="katman_2" data-name="katman 2" xmlns="http://www.w3.org/2000/svg" viewBox="0 0 459.61 141">
  <defs>
    <style>
      .cls-1 {
        fill-rule: evenodd;
      }

      .cls-1, .cls-2 {
        fill: #fff;
        stroke-width: 0px;
      }
    </style>
  </defs>
  <g id="Layer_1" data-name="Layer 1">
    <g id="Group_1511" data-name="Group 1511">
      <path id="Path_2871" data-name="Path 2871" class="cls-1" d="M451.6,65.79c-4.78-4.78-11.16-7.65-17.92-8-12.11-.65-19.43,3.22-30.03-7.38-8.21-8.21-6.7-14.09-7.06-24.1V0h-49.67v49.67h21.41c1.36.06,2.69.06,4.05,0h7.65c6.5.3,12.61,3.13,17.07,7.88,8.92,8.92,7.85,16.12,7.56,26.93-.41,15.18,11.55,27.82,26.72,28.23,15.18.41,27.82-11.55,28.23-26.72.21-7.56-2.69-14.85-8.03-20.2h.03Z"/>
      <path id="Path_2872" data-name="Path 2872" class="cls-2" d="M.86,49.87v66.74s0,25.16,26.96,24.33c0,0,18.07-1.48,23.68-3.45l-.97-30.06s-11.84,6.59-11.84-2.48v-55.07H.86Z"/>
      <path id="Path_2873" data-name="Path 2873" class="cls-2" d="M20.23,10.42s18.9-1.48,19.08,15.62c.18,17.1-19.08,16.27-19.08,16.27C20.23,42.32.36,44.8,0,27.37-.35,9.95,19.64,10.42,19.64,10.42"/>
      <path id="Path_2874" data-name="Path 2874" class="cls-2" d="M62.46,18.16v96.5s-2.81,26.34,25.81,26.34c0,0,19.58-1.33,23.98-3.45v-30.06s-11.99,6.26-11.99-2.48V18.16h-37.8Z"/>
      <path id="Path_2875" data-name="Path 2875" class="cls-2" d="M124.68,18.16v121.13h38.3v-32.22h6.91l14.32,32.22h41.08v-6.56l-21.85-37.97s19.08-13.49,19.08-44.88h-37.65s1.48,26.96-21.85,26.96V18.16h-38.33Z"/>
      <path id="Path_2876" data-name="Path 2876" class="cls-2" d="M329.02,49.4v54.22s-1.12,10.34,12.11,4.19l.97,30s-6.94,2.75-24.69,3.07c-17.75.32-23.06-10.34-23.39-12.43-6.11,8.21-15.92,12.87-26.13,12.43-18.37,0-39.92-16.92-39.92-45.74s19.43-46.86,40.9-46.86c8.47-.27,16.62,3.16,22.41,9.36l.47-7.91,37.27-.32ZM279.09,80.7c-7.97,0-12.34,5.49-12.34,13.85s5.49,14.38,13.23,14.2c4.13.15,8.18-1.18,11.46-3.72v-20.64c-3.6-2.57-7.94-3.9-12.37-3.72h0l.03.03Z"/>
    </g>
  </g>
</svg>