<svg xmlns="http://www.w3.org/2000/svg" xmlns:xlink="http://www.w3.org/1999/xlink" width="135.899" height="48.324" viewBox="0 0 135.899 48.324">
  <defs>
    <linearGradient id="linear-gradient" y1="0.5" x2="1" y2="0.5" gradientUnits="objectBoundingBox">
      <stop offset="0" stop-color="#9aca3d"/>
      <stop offset="1" stop-color="#3bb24a"/>
    </linearGradient>
  </defs>
  <g id="ilka" transform="translate(-329.385 -237.39)">
    <g id="Group_1500" data-name="Group 1500" transform="translate(329.385 237.39)">
      <path id="Path_2832" data-name="Path 2832" d="M735.451,257.513a8.392,8.392,0,0,0-5.488-2.451c-3.7-.2-5.94.981-9.186-2.261-2.513-2.511-2.047-4.306-2.155-7.375V237.39H703.43v15.191h6.551a11.706,11.706,0,0,0,1.234,0h2.34a7.668,7.668,0,0,1,5.225,2.41c2.728,2.728,2.408,4.932,2.318,8.237a8.412,8.412,0,1,0,14.354-5.715Z" transform="translate(-602.015 -237.39)" fill-rule="evenodd" fill="url(#linear-gradient)"/>
      <g id="Group_1499" data-name="Group 1499" transform="translate(0 7.961)">
        <path id="Path_2833" data-name="Path 2833" d="M330.32,311.77V332.4s0,7.776,8.335,7.521a49.839,49.839,0,0,0,7.318-1.068l-.3-9.3s-3.658,2.031-3.658-.762V311.773H330.32Z" transform="translate(-330.067 -299.565)" fill="#6e6f71"/>
        <path id="Path_2834" data-name="Path 2834" d="M335.636,266.763s5.843-.458,5.894,4.829-5.894,5.029-5.894,5.029-6.149.762-6.25-4.623,6.071-5.244,6.071-5.244" transform="translate(-329.385 -266.753)" fill="#6e6f71"/>
        <path id="Path_2835" data-name="Path 2835" d="M400.488,275.6v29.827s-.865,8.142,7.977,8.137c0,0,6.046-.412,7.418-1.074v-9.3s-3.709,1.93-3.709-.762V275.6H400.488Z" transform="translate(-381.193 -273.201)" fill="#6e6f71"/>
        <path id="Path_2836" data-name="Path 2836" d="M471.52,275.6v37.448h11.84V303.09h2.134l4.433,9.959h12.692v-2.033l-6.757-11.737s5.894-4.167,5.894-13.871H490.12s.458,8.332-6.759,8.332V275.6Z" transform="translate(-432.983 -273.201)" fill="#6e6f71"/>
        <path id="Path_2837" data-name="Path 2837" d="M620.5,310.268v16.753s-.35,3.191,3.739,1.3l.3,9.273s-2.145.849-7.63.949-7.128-3.191-7.228-3.839a9.554,9.554,0,0,1-8.077,3.842c-5.683,0-12.342-5.233-12.342-14.137s6.011-14.484,12.643-14.484a9.1,9.1,0,0,1,6.93,2.893l.149-2.443Zm-15.433,9.671c-2.467,0-3.812,1.7-3.812,4.284s1.695,4.441,4.086,4.392a5.452,5.452,0,0,0,3.541-1.147v-6.382A6.16,6.16,0,0,0,605.067,319.939Z" transform="translate(-518.8 -298.208)" fill="#6e6f71"/>
      </g>
    </g>
  </g>
</svg>
