<?xml version="1.0" encoding="UTF-8"?>
<svg version="1.1" xmlns="http://www.w3.org/2000/svg" width="1923" height="596">
<path d="M0 0 C53.13 0 106.26 0 161 0 C161 80.85 161 161.7 161 245 C184.75750163 241.76034069 204.01162686 238.24362416 221 221 C221.78246094 220.21625 222.56492187 219.4325 223.37109375 218.625 C245.22972232 195.62367752 248.84490485 163.17133207 251 133 C303.14 133 355.28 133 409 133 C406.73040448 194.27907911 393.08905801 251.76173418 352 299 C351.51112305 299.56332031 351.02224609 300.12664062 350.51855469 300.70703125 C344.45227517 307.63755918 337.98873254 313.99666358 331 320 C332.42656395 323.78974331 334.15775642 327.25926779 336.125 330.796875 C336.74366943 331.91118896 337.36233887 333.02550293 337.99975586 334.17358398 C338.66627128 335.36585273 339.33302465 336.55798848 340 337.75 C340.68823268 338.98445623 341.3764651 340.21891261 342.06469727 341.45336914 C345.98804546 348.47692114 349.9738972 355.45857189 354.08886719 362.37182617 C358.05928034 369.05438895 361.90300122 375.80847315 365.75 382.5625 C370.78681606 391.40271348 375.8583312 400.22015626 381 409 C386.71153621 418.75595212 392.33725088 428.55933818 397.93579102 438.38037109 C403.38713988 447.94121369 408.88035673 457.47741058 414.39233398 467.00341797 C415.27900757 468.53699951 415.27900757 468.53699951 416.18359375 470.1015625 C416.70493896 471.00213379 417.22628418 471.90270508 417.76342773 472.83056641 C424.23412873 484.18271824 420 482.6695116 420 506 C363.24 506 306.48 506 248 506 C241.12252308 492.24504617 241.12252308 492.24504617 238.109375 485.265625 C237.76750656 484.48184479 237.42563812 483.69806458 237.07341003 482.89053345 C236.34266461 481.2149895 235.61321191 479.53888124 234.88497925 477.86224365 C232.90640045 473.30838955 230.91662494 468.75944055 228.92578125 464.2109375 C228.51691177 463.27665924 228.1080423 462.34238098 227.68678284 461.37979126 C223.86874501 452.67129276 219.96901632 444.00065885 216.05084229 435.33685303 C209.79774946 421.50984249 203.60547605 407.65784102 197.52493286 393.75396729 C196.76270484 392.01136768 195.99927052 390.26929519 195.23458862 388.527771 C194.18115532 386.12695816 193.13271024 383.72403549 192.0859375 381.3203125 C191.77128036 380.60466125 191.45662323 379.88901001 191.13243103 379.15167236 C189 374.22969113 189 374.22969113 189 372 C179.76 372 170.52 372 161 372 C161 416.22 161 460.44 161 506 C107.87 506 54.74 506 0 506 C0 339.02 0 172.04 0 0 Z " fill="#CACACA" transform="translate(523,79)"/>
<path d="M0 0 C2.33529001 2.08929738 4.63904744 4.20055807 6.90625 6.36328125 C7.87228426 3.00870075 8.18573713 -0.23774373 8.44140625 -3.71484375 C8.52011963 -4.7605957 8.59883301 -5.80634766 8.67993164 -6.88378906 C8.77625544 -8.21809528 8.87251829 -9.55240589 8.96875 -10.88671875 C9.13075932 -13.09513204 9.29304622 -15.30352498 9.45555115 -17.51190186 C9.53995673 -18.65914104 9.62436232 -19.80638023 9.71132565 -20.98838425 C9.77565068 -21.86233463 9.83997572 -22.73628502 9.90625 -23.63671875 C44.30277451 -24.45910885 78.67638866 -24.77260335 113.08215332 -24.7053833 C119.07885356 -24.69485619 125.07555867 -24.69052517 131.07226562 -24.68554688 C142.68360561 -24.67505723 154.29492541 -24.65816635 165.90625 -24.63671875 C165.90863835 -23.44419526 165.91102671 -22.25167177 165.91348743 -21.02301121 C165.9708804 7.30209926 166.04363448 35.62714191 166.13523628 63.95216226 C166.14650408 67.44051993 166.15764259 70.92887799 166.16870117 74.41723633 C166.1720067 75.458915 166.1720067 75.458915 166.175379 76.52163769 C166.21072559 87.75760222 166.2356046 98.99356668 166.25659702 110.22956615 C166.27838013 121.76369305 166.31167588 133.29773893 166.35495156 144.83180624 C166.37888753 151.30823653 166.39761394 157.78458721 166.40386391 164.26106071 C166.40991294 170.35872543 166.42990676 176.45618647 166.46052551 182.55377579 C166.46930855 184.78982313 166.47302777 187.02589709 166.47125816 189.26196098 C166.46960238 192.32001172 166.48633131 195.37744381 166.50752258 198.43540955 C166.50267501 199.31578493 166.49782743 200.19616031 166.49283296 201.10321373 C166.57366924 208.19436755 167.69490776 214.61404495 172.21875 220.23828125 C179.20077621 225.75895314 185.1676753 226.37299051 193.90625 225.36328125 C198.08550614 224.40021793 202.13142427 223.05774743 206.1796875 221.65234375 C209.72856017 220.42474629 213.29251233 219.38026945 216.90625 218.36328125 C217.42967038 233.46268557 217.95131037 248.56215067 218.47085571 263.6616888 C218.7121537 270.67333286 218.95402487 277.68495625 219.19726562 284.6965332 C219.43209422 291.46567113 219.6652987 298.23486347 219.89752197 305.00409126 C219.98629189 307.5840089 220.07560197 310.16390802 220.16546631 312.74378777 C220.29143734 316.36291676 220.41547113 319.98210743 220.5390625 323.60131836 C220.57646545 324.66299728 220.61386841 325.72467621 220.65240479 326.81852722 C220.85000564 332.67098924 220.94194476 338.50746643 220.90625 344.36328125 C212.72155391 347.31756417 204.66364903 349.44129035 196.09375 350.92578125 C194.89814453 351.13557617 193.70253906 351.34537109 192.47070312 351.56152344 C171.84484125 355.02765093 150.80980521 356.86557755 129.90625 357.36328125 C128.88112305 357.3905127 127.85599609 357.41774414 126.79980469 357.44580078 C92.22287057 358.24979793 59.42018358 353.64914456 33.36328125 328.953125 C27.47177236 322.71684623 23.16548732 315.76762297 18.90625 308.36328125 C17.59914063 309.81347656 17.59914063 309.81347656 16.265625 311.29296875 C-7.88215141 337.81011555 -38.91839443 355.59317644 -75.25097656 357.53173828 C-119.63523687 359.07761969 -160.27919568 344.97217568 -193.21875 314.92578125 C-194.70694416 313.53683239 -196.18523866 312.13852923 -197.65722656 310.73242188 C-199.04973613 309.40523057 -200.45823908 308.09488295 -201.8671875 306.78515625 C-217.64764252 291.68294428 -228.82959213 272.9852823 -238.09375 253.36328125 C-238.63 252.23277344 -239.16625 251.10226562 -239.71875 249.9375 C-262.71560939 198.97310589 -261.40009675 135.15919132 -241.95947266 83.33984375 C-232.20731715 58.6893399 -218.48358542 37.4228527 -200.09375 18.36328125 C-199.35769531 17.57566406 -198.62164063 16.78804687 -197.86328125 15.9765625 C-148.19078675 -35.86740717 -55.79675424 -48.28427351 0 0 Z M-80.09375 121.36328125 C-85.25040475 128.13336785 -88.70607089 135.21637615 -91.09375 143.36328125 C-91.31933594 144.10449219 -91.54492188 144.84570312 -91.77734375 145.609375 C-96.07590916 162.71470081 -93.29174217 182.16696227 -84.8984375 197.5546875 C-77.29626435 209.38577515 -66.85998663 217.29893564 -53.40625 221.36328125 C-33.67937278 225.37686132 -14.28825509 221.40258256 2.90625 211.36328125 C4.46456039 210.57645966 4.46456039 210.57645966 6.05435181 209.77374268 C9.27411979 207.56398079 9.27411979 207.56398079 9.6277771 203.61737061 C9.64513247 202.08316902 9.62929369 200.5483762 9.58740234 199.01464844 C9.5882785 198.17525726 9.58915466 197.33586609 9.59005737 196.47103882 C9.585881 193.69979397 9.53922912 190.93097749 9.4921875 188.16015625 C9.48099548 186.23774539 9.47245532 184.3153174 9.46646118 182.3928833 C9.4435633 177.33553737 9.38463166 172.27922706 9.3182373 167.22229004 C9.25683553 162.0610963 9.22945066 156.89973504 9.19921875 151.73828125 C9.13488948 141.61282648 9.03249822 131.48814001 8.90625 121.36328125 C6.67854676 120.07553162 4.44917354 118.79083523 2.21875 117.5078125 C1.59291016 117.14562622 0.96707031 116.78343994 0.32226562 116.41027832 C-23.293896 102.84798655 -60.12600203 99.36139679 -80.09375 121.36328125 Z " fill="#E0E0E0" transform="translate(1209.09375,234.63671875)"/>
<path d="M0 0 C68.64 0 137.28 0 208 0 C208.375 72.4375 208.375 72.4375 208.47802734 95.22436523 C208.5179815 102.02461256 208.5179815 102.02461256 208.56045532 108.82484436 C208.57915794 111.8299264 208.59260135 114.83498009 208.60269165 117.84010315 C208.73253534 154.8325979 211.86717432 183.7115717 238.75 211.1875 C247.50925599 219.81540285 257.27026034 227.00633863 268.3125 232.4375 C268.91408936 232.74333008 269.51567871 233.04916016 270.13549805 233.36425781 C288.53600311 241.83623031 308.59950061 240.39040598 328.3125 240.0625 C366.27249162 239.46257547 399.5080665 242.05636544 430 267 C430.67417969 267.53367187 431.34835937 268.06734375 432.04296875 268.6171875 C452.01058235 284.92627587 466.69858933 312.95937264 469.76855469 338.36523438 C472.77545964 372.59573891 465.59748747 403.87854621 443.359375 430.42529297 C424.99475864 451.69895955 399.12156582 466.53304932 371 470 C365.99671368 470.31576015 361.0124412 470.38177357 356 470.375 C355.3191333 470.37445618 354.6382666 470.37391235 353.93676758 470.37335205 C326.42076203 470.27258149 302.52392906 461.40683433 281 444 C280.19691406 443.35160156 279.39382813 442.70320313 278.56640625 442.03515625 C255.0233415 422.08271489 242.50600431 392.20821009 240 362 C239.61163894 352.25658176 239.84299378 342.4968462 240 332.75 C240.5930896 295.72426372 234.93224152 268.39888298 208.67578125 240.74609375 C187.55727655 219.07265024 161.17678405 208.74386749 131.12182617 208.34057617 C125.77626574 208.2818991 120.43132502 208.27950805 115.08551788 208.29096222 C111.42361555 208.29416726 107.7620635 208.27013066 104.10021973 208.24865723 C93.46273121 208.20155946 82.82508853 208.19700572 72.1875 208.1875 C48.365625 208.125625 24.54375 208.06375 0 208 C0 139.36 0 70.72 0 0 Z " fill="#F5F5F5" transform="translate(1449,4)"/>
<path d="M0 0 C52.14 0 104.28 0 158 0 C158.02187378 16.56014282 158.02187378 16.56014282 158.04418945 33.45483398 C158.09294403 68.77629073 158.15635234 104.09770756 158.22898628 139.41912296 C158.24025449 144.90531026 158.25139293 150.39149782 158.26245117 155.87768555 C158.2657567 157.51599187 158.2657567 157.51599187 158.269129 159.18739528 C158.30450432 176.87372417 158.32936714 194.56005301 158.35034702 212.24640416 C158.37210719 230.39334509 158.40515969 248.54024009 158.44870156 266.68714195 C158.4752145 277.88533149 158.49291252 289.08346379 158.49934604 300.28168315 C158.50460099 307.96003604 158.52082165 315.6383169 158.54566566 323.31663119 C158.55967689 327.74703923 158.56885285 332.17731836 158.56500816 336.60774994 C158.561593 340.66630882 158.57199114 344.72459258 158.59323552 348.78309513 C158.59849522 350.2489158 158.59874691 351.7147651 158.59339563 353.18058544 C158.53677166 366.00784898 158.53677166 366.00784898 163.75 377.4375 C170.5952733 382.19116201 178.09777733 381.34832741 186 380 C189.90930856 378.96524078 193.69082585 377.62912888 197.4921875 376.25390625 C200.94492204 375.01968822 204.47438263 374.00731925 208 373 C208 414.58 208 456.16 208 499 C200.10577414 502.38323965 200.10577414 502.38323965 196.99609375 503.02734375 C196.27196289 503.1776001 195.54783203 503.32785645 194.80175781 503.48266602 C194.02155273 503.63276123 193.24134766 503.78285645 192.4375 503.9375 C191.15697754 504.18681274 191.15697754 504.18681274 189.85058594 504.44116211 C176.98472456 506.84983419 163.99662148 508.48258782 151 510 C150.33901306 510.07732361 149.67802612 510.15464722 148.99700928 510.23431396 C109.34305063 514.82635908 66.38673535 517.78228703 33.125 491.625 C13.79716757 474.84557807 3.10288629 452.22264682 0 427 C-0.0863779 424.49116742 -0.12378421 421.98036696 -0.12304783 419.47004795 C-0.12420167 418.74103548 -0.12535552 418.012023 -0.12654433 417.26091924 C-0.12918686 414.82313862 -0.12470837 412.38542431 -0.12025452 409.94764709 C-0.1206907 408.18031579 -0.12156648 406.41298456 -0.12284368 404.64565367 C-0.12507935 399.79298883 -0.12108002 394.94034606 -0.11606562 390.08768404 C-0.11174801 384.85326601 -0.11320848 379.61884924 -0.1139679 374.38442993 C-0.1144923 365.3166938 -0.11135422 356.24896487 -0.10573006 347.18123055 C-0.09760375 334.07080074 -0.09499867 320.96037442 -0.09374207 307.84994238 C-0.09155333 286.57924021 -0.08489806 265.30854188 -0.07543945 244.0378418 C-0.06626073 223.37508158 -0.05918215 202.7123224 -0.05493164 182.04956055 C-0.05466892 180.7759525 -0.05440619 179.50234445 -0.05413551 178.19014222 C-0.05283047 171.80083824 -0.05156676 165.41153426 -0.05032361 159.02223027 C-0.03995654 106.01481677 -0.02152121 53.00741037 0 0 Z " fill="#BABABA" transform="translate(264,79)"/>
<path d="M0 0 C52.47 0 104.94 0 159 0 C159.03867187 25.41515625 159.03867187 25.41515625 159.078125 51.34375 C159.10328426 62.06251164 159.12944647 72.7812552 159.16015625 83.5 C159.17624814 89.13020751 159.19209157 94.76041563 159.20751953 100.390625 C159.20946347 101.09626367 159.21140741 101.80190233 159.21341026 102.52892399 C159.24441679 113.9155626 159.26140152 125.30218105 159.27319422 136.68885392 C159.28561255 148.37779824 159.31312931 160.06663697 159.35461307 171.75551462 C159.37725563 178.31968639 159.39290899 184.88370747 159.39188385 191.44792175 C159.39113891 197.62688704 159.4090236 203.80551886 159.44116783 209.98439789 C159.44968345 212.25150278 159.45140553 214.51864501 159.44580269 216.78575897 C159.43916659 219.88372607 159.45707521 222.98063103 159.48101807 226.07849121 C159.47325765 226.97345228 159.46549723 227.86841334 159.45750165 228.79049444 C159.53769961 234.66130848 160.72431102 239.07671502 164 244 C168.33880939 248.07585125 172.83478965 248.39726232 178.5625 248.3515625 C188.72438059 247.31227926 198.88489019 243.47469027 208 239 C209.20071055 249.50342973 209.41985028 260.0520145 209.75390625 270.609375 C209.81956488 272.62364252 209.88539976 274.63790431 209.95140076 276.65216064 C210.08878334 280.8681394 210.22380379 285.08418555 210.35717773 289.30029297 C210.52615435 294.63496744 210.70130957 299.96941726 210.87835789 305.30382919 C211.01574934 309.46687381 211.14955484 313.63002834 211.2823925 317.79322052 C211.34545814 319.75591888 211.40960648 321.71858282 211.47497749 323.68120575 C211.94238975 337.7915258 212.07910731 351.88217362 212 366 C202.52048018 368.64251725 193.17036252 370.90280515 183.4375 372.4375 C181.50342285 372.74337036 181.50342285 372.74337036 179.53027344 373.05541992 C105.44137165 384.4634251 105.44137165 384.4634251 75 377 C74.319375 376.83371094 73.63875 376.66742187 72.9375 376.49609375 C58.35490157 372.76758847 45.19171952 366.16931121 34 356 C33.09636719 355.18917969 32.19273438 354.37835937 31.26171875 353.54296875 C17.86263661 340.8851913 9.2019896 324.57493032 4.1875 306.9375 C3.9925293 306.25461914 3.79755859 305.57173828 3.59667969 304.86816406 C-0.47770873 289.48321593 -0.28194004 274.16193022 -0.23213124 258.36487222 C-0.22341118 254.889967 -0.22642289 251.41506813 -0.22793579 247.94015503 C-0.22897929 241.93479745 -0.22275906 235.92948368 -0.21146011 229.92413712 C-0.19513492 221.24165713 -0.18998996 212.55919811 -0.18748413 203.87670444 C-0.18311798 189.78644333 -0.16983834 175.69620551 -0.15087891 161.60595703 C-0.13249204 147.92692173 -0.11837227 134.24789281 -0.10986328 120.56884766 C-0.10932729 119.71562876 -0.10879129 118.86240987 -0.10823905 117.98333585 C-0.10407967 111.30958664 -0.10016601 104.63583728 -0.09632993 97.96208787 C-0.07749753 65.30803719 -0.03725268 32.6540449 0 0 Z " fill="#B0B0B0" transform="translate(7,212)"/>
<path d="M0 0 C1.83643066 0.00845947 1.83643066 0.00845947 3.70996094 0.01708984 C25.81228195 0.31198211 45.81680299 5.42399297 62.5859375 20.3984375 C74.843074 33.03127167 78.80006816 49.71417611 78.625 66.8125 C78.63660156 67.94558594 78.64820313 69.07867187 78.66015625 70.24609375 C78.60446606 86.4519383 73.78856342 100.38557289 62.4453125 112.140625 C61.72085938 112.85734375 60.99640625 113.5740625 60.25 114.3125 C59.73179687 114.86421875 59.21359375 115.4159375 58.6796875 115.984375 C39.86221352 134.30924495 8.71742357 135.39753335 -15.75 135.3125 C-36.53023792 134.61101088 -57.14887495 128.77713244 -71.75 113.3125 C-85.66059937 98.28359754 -86.65604764 79.75603968 -85.9453125 60.26708984 C-84.82851663 43.3727603 -76.46390186 30.52568527 -64.4765625 19.15625 C-46.9951028 4.0559858 -22.3917741 -0.10887915 0 0 Z " fill="#B0B0B0" transform="translate(89.75,46.6875)"/>
</svg>
