<?xml version="1.0" encoding="UTF-8"?>
<svg id="katman_2" data-name="katman 2" xmlns="http://www.w3.org/2000/svg" viewBox="0 0 442 135.6">
  <defs>
    <style>
      .cls-1 {
        fill-rule: evenodd;
      }

      .cls-1, .cls-2 {
        fill: #fff;
        stroke-width: 0px;
      }
    </style>
  </defs>
  <g id="Layer_1" data-name="Layer 1">
    <g id="Group_1511" data-name="Group 1511">
      <path id="Path_2871" data-name="Path 2871" class="cls-1" d="M434.29,63.27c-4.6-4.6-10.73-7.36-17.24-7.7-11.64-.62-18.69,3.1-28.88-7.1-7.89-7.89-6.45-13.55-6.79-23.17V0h-47.77v47.77h20.59c1.31.06,2.58.06,3.89,0h7.36c6.25.28,12.13,3.01,16.41,7.58,8.58,8.58,7.55,15.51,7.27,25.9-.4,14.6,11.1,26.75,25.7,27.15,14.6.4,26.75-11.1,27.15-25.7.2-7.27-2.58-14.28-7.72-19.42h.03Z"/>
      <path id="Path_2872" data-name="Path 2872" class="cls-2" d="M.83,47.96v64.18s0,24.2,25.93,23.4c0,0,17.38-1.42,22.78-3.32l-.94-28.91s-11.39,6.33-11.39-2.39v-52.96H.83Z"/>
      <path id="Path_2873" data-name="Path 2873" class="cls-2" d="M19.46,10.02s18.17-1.42,18.35,15.02c.17,16.44-18.35,15.65-18.35,15.65C19.46,40.69.35,43.08,0,26.32-.34,9.57,18.89,10.02,18.89,10.02"/>
      <path id="Path_2874" data-name="Path 2874" class="cls-2" d="M60.07,17.46v92.8s-2.7,25.33,24.82,25.33c0,0,18.83-1.28,23.06-3.32v-28.91s-11.53,6.02-11.53-2.39V17.46h-36.35Z"/>
      <path id="Path_2875" data-name="Path 2875" class="cls-2" d="M119.9,17.46v116.49h36.83v-30.98h6.65l13.77,30.98h39.5v-6.3l-21.01-36.52s18.35-12.98,18.35-43.16h-36.21s1.42,25.93-21.01,25.93V17.46h-36.86Z"/>
      <path id="Path_2876" data-name="Path 2876" class="cls-2" d="M316.41,47.51v52.14s-1.08,9.94,11.64,4.03l.94,28.85s-6.67,2.64-23.74,2.95c-17.07.31-22.18-9.94-22.49-11.96-5.88,7.89-15.31,12.38-25.13,11.96-17.66,0-38.39-16.27-38.39-43.99s18.69-45.07,39.33-45.07c8.15-.26,15.99,3.04,21.55,9l.45-7.61,35.84-.31ZM268.39,77.61c-7.67,0-11.87,5.28-11.87,13.32s5.28,13.83,12.72,13.66c3.98.14,7.87-1.14,11.02-3.58v-19.85c-3.46-2.47-7.64-3.75-11.9-3.58h0l.03.03Z"/>
    </g>
  </g>
</svg>