<?xml version="1.0" encoding="UTF-8"?>
<svg id="katman_2" data-name="katman 2" xmlns="http://www.w3.org/2000/svg" viewBox="0 0 170 67.8">
  <defs>
    <style>
      .cls-1 {
        fill: #febe2d;
        fill-rule: evenodd;
        stroke-width: 0px;
      }
    </style>
  </defs>
  <g id="Layer_1" data-name="Layer 1">
    <path class="cls-1" d="M162.15,65.27v-6.26h1.36v.91c.48-.6,1.23-1.06,2.03-1.06v1.35c-.12-.03-.25-.04-.41-.04-.58,0-1.35.39-1.62.84v4.26h-1.36ZM157.72,59.97c-1.15,0-1.7.89-1.75,1.64h3.52c-.04-.74-.54-1.64-1.77-1.64ZM154.56,62.13c0-1.81,1.32-3.28,3.17-3.28s3.07,1.43,3.07,3.39v.34h-4.82c.11.93.8,1.72,1.98,1.72.62,0,1.33-.25,1.79-.7l.62.9c-.63.6-1.55.92-2.54.92-1.89,0-3.28-1.31-3.28-3.29ZM151.82,56.63h1.36v8.64h-1.36v-8.64ZM149.14,65.27l-1.9-2.59-.88.91v1.68h-1.36v-8.64h1.36v5.4l2.76-3.02h1.68l-2.59,2.84,2.64,3.42h-1.71ZM142.56,58.25c-.47,0-.84-.38-.84-.84s.38-.84.84-.84.84.38.84.84-.38.84-.84.84ZM141.87,59.01h1.36v6.26h-1.36v-6.26ZM138.02,63.8v-3.61h-1.03v-1.18h1.03v-1.71h1.36v1.71h1.27v1.18h-1.27v3.28c0,.43.21.75.6.75.26,0,.49-.12.6-.23l.32,1.04c-.24.22-.65.4-1.27.4-1.06,0-1.61-.57-1.61-1.62ZM131.09,64.44l.62-.97c.44.45,1.31.87,2.11.87s1.24-.34,1.24-.83c0-1.23-3.78-.35-3.78-2.76,0-1.02.88-1.89,2.46-1.89,1.06,0,1.86.38,2.42.87l-.57.96c-.38-.41-1.06-.75-1.85-.75-.71,0-1.15.34-1.15.78,0,1.1,3.78.27,3.78,2.76,0,1.11-.92,1.96-2.6,1.96-1.07,0-2.03-.35-2.68-.98ZM128.5,63.84v-.96c-.32-.43-.91-.65-1.49-.65-.76,0-1.35.45-1.35,1.13s.58,1.13,1.35,1.13c.58,0,1.17-.22,1.49-.65ZM128.5,65.27v-.69c-.46.54-1.2.84-2.03.84-1.01,0-2.16-.7-2.16-2.07,0-1.45,1.14-2.05,2.16-2.05.86,0,1.57.27,2.03.8v-.93c0-.72-.61-1.17-1.46-1.17-.7,0-1.32.26-1.85.8l-.57-.95c.72-.7,1.63-1.01,2.63-1.01,1.4,0,2.62.58,2.62,2.25v4.16h-1.36ZM118.18,65.27v-8.64h1.52v7.31h3.81v1.33h-5.32ZM111.78,56.63h1.36v8.64h-1.36v-8.64ZM107.35,59.97c-1.15,0-1.7.89-1.75,1.64h3.52c-.04-.74-.54-1.64-1.77-1.64ZM104.19,62.13c0-1.81,1.32-3.28,3.17-3.28s3.07,1.43,3.07,3.39v.34h-4.82c.1.93.8,1.72,1.98,1.72.62,0,1.33-.25,1.79-.7l.62.9c-.63.6-1.55.92-2.54.92-1.89,0-3.28-1.31-3.28-3.29ZM97.98,66.5c.14.07.36.11.52.11.44,0,.73-.13.91-.54l.31-.71-2.58-6.33h1.46l1.83,4.69,1.83-4.69h1.45l-3.02,7.38c-.43,1.06-1.17,1.4-2.14,1.41-.19,0-.58-.04-.76-.09l.19-1.22ZM95.61,58.25c-.47,0-.84-.38-.84-.84s.38-.84.84-.84.84.38.84.84-.38.84-.84.84ZM94.93,59.01h1.36v6.26h-1.36v-6.26ZM90.43,65.27v-6.26h1.36v.91c.48-.6,1.23-1.06,2.03-1.06v1.35c-.12-.03-.25-.04-.41-.04-.58,0-1.35.39-1.62.84v4.26h-1.36ZM86.59,63.8v-3.61h-1.04v-1.18h1.04v-1.71h1.36v1.71h1.27v1.18h-1.27v3.28c0,.43.21.75.6.75.26,0,.49-.12.6-.23l.32,1.04c-.24.22-.65.4-1.27.4-1.06,0-1.6-.57-1.6-1.62ZM79.66,64.44l.62-.97c.44.45,1.31.87,2.11.87s1.24-.34,1.24-.83c0-1.23-3.78-.35-3.78-2.76,0-1.02.88-1.89,2.46-1.89,1.06,0,1.87.38,2.42.87l-.57.96c-.38-.41-1.06-.75-1.85-.75-.71,0-1.15.34-1.15.78,0,1.1,3.78.27,3.78,2.76,0,1.11-.92,1.96-2.6,1.96-1.08,0-2.03-.35-2.68-.98ZM77.07,65.26v-.83c-.44.49-1.22.98-2.2.98-1.35,0-2.02-.71-2.02-1.98v-4.43h1.36v3.93c0,.97.49,1.28,1.27,1.28.69,0,1.28-.4,1.59-.82v-4.39h1.36v6.25h-1.36ZM74.32,58.14c-.42,0-.76-.34-.76-.76s.34-.76.76-.76.76.34.76.76-.34.76-.76.76ZM77.03,58.14c-.42,0-.76-.34-.76-.76s.34-.76.76-.76.76.34.76.76-.34.76-.76.76ZM69.72,63.37v-2.47c-.3-.46-.97-.84-1.61-.84-1.09,0-1.77.87-1.77,2.07s.69,2.09,1.77,2.09c.64,0,1.31-.38,1.61-.84ZM69.72,65.27v-.86c-.48.62-1.19,1.01-2.01,1.01-1.59,0-2.77-1.22-2.77-3.29s1.16-3.28,2.77-3.28c.79,0,1.52.35,2.01,1.02v-3.25h1.36v8.64h-1.36ZM62.2,65.27v-3.91c0-.98-.51-1.29-1.27-1.29-.69,0-1.28.41-1.61.83v4.38h-1.36v-6.26h1.36v.84c.41-.49,1.23-1,2.21-1,1.35,0,2.02.73,2.02,2.01v4.4h-1.36ZM50.52,65.27v-8.64h5.92v1.33h-4.4v2.23h4.31v1.33h-4.31v2.41h4.4v1.33h-5.92ZM42.71,59.97c-1.15,0-1.7.89-1.75,1.64h3.52c-.04-.74-.54-1.64-1.77-1.64ZM39.55,62.13c0-1.81,1.32-3.28,3.17-3.28s3.07,1.43,3.07,3.39v.34h-4.82c.1.93.8,1.72,1.98,1.72.62,0,1.33-.25,1.79-.7l.62.9c-.63.6-1.55.92-2.54.92-1.89,0-3.28-1.31-3.28-3.29ZM35.06,65.27l-2.55-6.26h1.46l1.83,4.69,1.82-4.69h1.45l-2.55,6.26h-1.46ZM27.64,58.25c-.47,0-.84-.38-.84-.84s.38-.84.84-.84.84.38.84.84-.38.84-.84.84ZM26.95,59.01h1.36v6.26h-1.36v-6.26ZM23.83,63.84v-.96c-.32-.43-.91-.65-1.49-.65-.76,0-1.34.45-1.34,1.13s.58,1.13,1.34,1.13c.58,0,1.17-.22,1.49-.65ZM23.83,65.27v-.69c-.47.54-1.21.84-2.03.84-1.01,0-2.16-.7-2.16-2.07,0-1.45,1.14-2.05,2.16-2.05.86,0,1.57.27,2.03.8v-.93c0-.72-.61-1.17-1.46-1.17-.7,0-1.32.26-1.85.8l-.57-.95c.72-.7,1.63-1.01,2.63-1.01,1.4,0,2.62.58,2.62,2.25v4.16h-1.36ZM15.5,65.27v-6.26h1.36v.91c.48-.6,1.23-1.06,2.03-1.06v1.35c-.12-.03-.25-.04-.42-.04-.58,0-1.34.39-1.62.84v4.26h-1.36ZM13.07,58.25c-.46,0-.84-.38-.84-.84s.38-.84.84-.84.84.38.84.84-.38.84-.84.84ZM12.38,59.01h1.36v6.26h-1.36v-6.26ZM4.45,65.27v-1.23l4.4-6.07h-4.4v-1.33h6.39v1.22l-4.43,6.09h4.52v1.33h-6.48ZM46.96,46.54c.24.82.47,1.65.71,2.53h-2.07c-.37,0-.73.01-1.09,0-.08,0-.21-.09-.21-.14-.01-1.19,0-2.37,0-3.6.1.03.17.05.24.08.73.31,1.47.63,2.2.95.09.04.2.11.22.2ZM77.14,11.75c-.35-1.23-.69-2.47-1.05-3.76.24,0,.43,0,.61,0,.91,0,1.82,0,2.72,0,.16,0,.25.03.25.23,0,1.5,0,3,0,4.51,0,.05-.02.1-.03.19-.39-.16-.76-.32-1.13-.48-.39-.17-.79-.33-1.17-.51-.08-.04-.17-.11-.19-.19ZM71.87,11.01c.85-.79,1.69-1.59,2.54-2.39.06-.06.13-.11.23-.19.1.34.19.66.28.97.31,1.12.62,2.23.92,3.35.05.2.16.32.35.4,1.07.46,2.14.93,3.21,1.37.21.09.29.2.29.43,0,2.23-.01,4.47,0,6.7,0,.26-.07.45-.26.6-.15.12-.29.26-.48.43-.21-.76-.41-1.47-.61-2.18-.23-.81-.46-1.62-.67-2.44-.06-.21-.16-.33-.36-.42-1.36-.57-2.72-1.16-4.08-1.74-.19-.08-.29-.18-.34-.39-.37-1.36-.74-2.72-1.12-4.07-.05-.19-.04-.31.11-.44ZM51.21,42.76c.42,1.55.86,3.09,1.29,4.64.02.06-.02.17-.07.22-.47.45-.95.9-1.43,1.34-.07.06-.18.1-.28.1-.42.01-.83,0-1.24.01-.2,0-.27-.07-.32-.26-.29-1.07-.6-2.14-.88-3.22-.07-.25-.19-.39-.43-.48-1.1-.46-2.2-.94-3.31-1.41-.19-.08-.26-.18-.26-.4,0-2.03.01-4.05,0-6.08,0-.2.05-.34.2-.47.26-.22.5-.46.79-.73.13.46.25.88.37,1.3.27.97.54,1.94.8,2.91.05.21.15.32.34.4,1.37.58,2.73,1.17,4.1,1.74.18.08.27.18.32.38ZM57.87,42.04c-.4-1.42-.8-2.85-1.19-4.28-.07-.26-.19-.41-.43-.51-1.33-.56-2.65-1.14-3.98-1.69-.22-.09-.33-.23-.4-.47-.35-1.32-.71-2.63-1.08-3.94-.03-.13-.08-.24.05-.36.91-.84,1.81-1.7,2.72-2.55.02-.03.06-.04.11-.07.05.15.09.29.13.42.34,1.25.7,2.5,1.03,3.76.06.23.18.36.39.45,1.36.57,2.72,1.16,4.07,1.74.17.07.26.17.31.36.42,1.54.86,3.08,1.28,4.62.01.07-.01.18-.06.22-.86.81-1.71,1.62-2.58,2.43-.2.19-.3.16-.38-.11ZM73.47,22.02c-.06-.23-.17-.36-.39-.45-1.35-.57-2.7-1.16-4.05-1.73-.19-.08-.29-.19-.34-.39-.37-1.35-.74-2.7-1.12-4.05-.06-.2-.03-.33.12-.47.85-.79,1.7-1.59,2.55-2.38.05-.05.12-.1.2-.17.11.41.22.78.33,1.16.29,1.03.58,2.06.85,3.09.06.24.17.38.4.47,1.34.57,2.68,1.15,4.03,1.72.19.08.3.19.36.41.4,1.48.82,2.95,1.22,4.43.03.1,0,.26-.07.32-.88.84-1.78,1.68-2.67,2.52-.03.03-.07.05-.14.1-.04-.12-.08-.23-.11-.33-.4-1.42-.79-2.84-1.18-4.25ZM55.38,38.77c.45,1.56.89,3.12,1.31,4.69.02.06-.02.18-.07.22-.85.81-1.71,1.62-2.58,2.43-.19.18-.3.14-.37-.13-.4-1.43-.8-2.85-1.18-4.28-.07-.26-.2-.41-.43-.51-1.35-.56-2.69-1.15-4.03-1.71-.18-.07-.27-.18-.33-.38-.36-1.34-.75-2.68-1.11-4.02-.03-.1,0-.26.07-.32.9-.87,1.82-1.72,2.73-2.58.02-.01.04-.02.1-.05.14.5.28.99.41,1.48.25.9.5,1.8.74,2.7.05.21.16.33.36.41,1.37.58,2.73,1.17,4.1,1.77.12.05.25.17.29.29ZM70.45,30.2c-.4-1.43-.79-2.85-1.18-4.28-.06-.21-.16-.34-.36-.42-1.36-.58-2.72-1.17-4.07-1.74-.19-.08-.29-.18-.35-.39-.36-1.35-.73-2.7-1.11-4.05-.04-.16-.05-.28.08-.41.9-.83,1.79-1.67,2.68-2.51.03-.02.05-.04.11-.08.03.1.06.18.09.26.36,1.32.74,2.64,1.09,3.97.07.25.19.37.41.47,1.36.57,2.72,1.16,4.08,1.74.16.07.25.16.3.33.41,1.49.82,2.98,1.24,4.46.04.16.04.27-.09.4-.87.8-1.72,1.62-2.58,2.42-.05.05-.12.09-.21.15-.04-.13-.08-.23-.11-.33ZM60.89,33.83c-.07-.25-.18-.4-.41-.5-1.36-.57-2.7-1.15-4.06-1.72-.18-.07-.27-.18-.32-.38-.37-1.35-.75-2.7-1.11-4.05-.03-.1-.01-.27.05-.33.9-.87,1.82-1.72,2.73-2.58.02-.02.04-.03.11-.06.21.75.41,1.49.61,2.22.19.67.37,1.33.55,2,.05.21.16.33.36.41,1.37.58,2.73,1.17,4.1,1.75.17.07.26.17.31.36.41,1.51.83,3.03,1.26,4.54.04.14.03.23-.08.33-.85.8-1.7,1.61-2.56,2.41-.06.06-.15.1-.26.16-.04-.13-.08-.21-.1-.31-.39-1.42-.79-2.84-1.18-4.25ZM66.26,34.17c-.4-1.43-.8-2.85-1.19-4.28-.06-.24-.18-.38-.4-.47-1.36-.57-2.72-1.16-4.08-1.74-.16-.07-.25-.16-.3-.34-.37-1.37-.75-2.73-1.12-4.1-.03-.11,0-.28.07-.35.89-.85,1.79-1.7,2.69-2.54.02-.02.05-.04.12-.08.27.98.53,1.92.8,2.86.12.46.26.92.37,1.38.06.22.17.35.38.43,1.36.58,2.72,1.16,4.07,1.74.18.08.27.18.33.37.41,1.49.82,2.97,1.24,4.46.05.19.02.29-.12.42-.84.78-1.67,1.57-2.5,2.35-.24.23-.28.22-.37-.1ZM29.77,7.82c-2.08,0-3.75-1.75-3.75-3.91S27.69,0,29.77,0s3.75,1.75,3.75,3.91-1.68,3.91-3.75,3.91ZM10.95,7.81c-2.07,0-3.75-1.75-3.75-3.91s1.68-3.91,3.75-3.91,3.75,1.75,3.75,3.91-1.68,3.91-3.75,3.91ZM26.45,28.67c0-3.95-2.68-7.15-6-7.15s-6,3.19-6,7.15,2.68,7.14,6,7.14,6-3.19,6-7.14ZM20.44,49.79C9.14,49.79,0,40.32,0,28.61S9.14,7.42,20.44,7.42s20.45,9.47,20.45,21.19-9.14,21.19-20.45,21.19ZM122.9,8.38l-12.67,20.14,11.32,20.61h-15.55s-6.22-13.19-6.22-13.19v13.18s-14.89,0-14.89,0V8.37s14.9,0,14.9,0v12.97s6.67-12.97,6.67-12.97h16.45ZM149.62,33.94l-2.74-10.51-3.37,10.5h6.11ZM170,49.15h-15.56s-2-5.1-2-5.1h-12.22s-1.78,5.09-1.78,5.09h-15.31s14.65-40.76,14.65-40.76h17.11s15.1,40.77,15.1,40.77ZM65.25,37.12h14.85s0,11.86,0,11.86h-27.55s12.7-11.86,12.7-11.86ZM61.31,19.3h-17.62s0-11.2,0-11.2h29.88s-12.26,11.2-12.26,11.2Z"/>
  </g>
</svg>