<?xml version="1.0" encoding="UTF-8"?>
<svg id="katman_2" data-name="katman 2" xmlns="http://www.w3.org/2000/svg" xmlns:xlink="http://www.w3.org/1999/xlink" viewBox="0 0 162.92 111.93">
  <defs>
    <style>
      .cls-1 {
        fill: url(#linear-gradient);
      }

      .cls-1, .cls-2 {
        stroke-width: 0px;
      }

      .cls-2 {
        fill: none;
      }

      .cls-3 {
        clip-path: url(#clippath);
      }
    </style>
    <clipPath id="clippath">
      <rect class="cls-2" width="162.92" height="111.93" transform="translate(162.92 111.93) rotate(180)"/>
    </clipPath>
    <linearGradient id="linear-gradient" x1="1183.16" y1="57.34" x2="1369.09" y2="57.34" gradientTransform="translate(1352.83) rotate(-180) scale(1 -1)" gradientUnits="userSpaceOnUse">
      <stop offset="0" stop-color="#febe2d"/>
      <stop offset=".71" stop-color="#000"/>
    </linearGradient>
  </defs>
  <g id="Layer_1" data-name="Layer 1">
    <g class="cls-3">
      <path class="cls-1" d="M58.16,72.18c-.59-1.11-.59-1.99-.1-3.1,3.75-8.5,7.43-17.02,11.18-25.53.59-1.29.53-2.36-.16-3.61-1.45-2.62-2.82-5.29-4.23-7.93-2.85-5.43-5.72-10.87-8.68-16.51.49-.07.69-.14.9-.13,7.75-.01,15.52-.05,23.27.03.62,0,1.53.68,1.84,1.29,4.22,7.85,8.35,15.75,12.57,23.6.54,1.03.51,1.83.07,2.82-3.75,8.51-7.41,17.05-11.17,25.54-.61,1.4-.54,2.52.2,3.9,4.4,8.22,8.7,16.47,13.03,24.72.96,1.82.84,2.04-1.24,2.06-7.19.02-14.4-.02-21.6.03-1.15.03-1.75-.33-2.33-1.39-4.46-8.63-8.99-17.2-13.54-25.79ZM94.29,71.98c-.55-1.07-.57-1.92-.11-2.97,3.78-8.55,7.48-17.14,11.26-25.69.55-1.22.52-2.23-.16-3.44-2.06-3.83-4.08-7.67-6.11-11.53-2.24-4.22-4.46-8.46-6.76-12.82.45-.12.59-.18.76-.17,7.87-.03,15.73-.07,23.61.02.55,0,1.35.71,1.66,1.27,4.16,7.76,8.24,15.56,12.38,23.34.61,1.1.64,2,.13,3.1-3.74,8.45-7.36,16.96-11.14,25.4-.65,1.47-.52,2.64.25,4.05,4.35,8.16,8.63,16.37,12.95,24.57.28.54.5,1.08.85,1.84-.77.16-1.33.36-1.89.36-7.38.02-14.76-.01-22.12,0-.9.02-1.34-.31-1.77-1.15-4.56-8.74-9.16-17.49-13.8-26.2ZM21.92,72.18c-.51-1-.55-1.8-.09-2.81,3.73-8.5,7.41-17.04,11.18-25.52.61-1.37.63-2.5-.14-3.9-4.11-7.6-8.08-15.26-12.13-22.89-.25-.48-.46-.98-.72-1.56.43-.06.63-.1.85-.1,7.69,0,15.39,0,23.08-.06,1.18,0,1.65.57,2.15,1.52,4.07,7.79,8.18,15.58,12.34,23.33.64,1.2.62,2.12.1,3.27-3.74,8.49-7.41,17.04-11.17,25.54-.54,1.2-.48,2.21.17,3.45,4.38,8.2,8.72,16.46,13.04,24.7.3.59.55,1.21.92,1.98-.69.1-1.16.23-1.63.22-7.42.02-14.85,0-22.27.05-1.18,0-1.64-.52-2.14-1.44-4.5-8.6-8.99-17.2-13.56-25.77ZM-.55,98.14c-4.54-8.51-9.01-17.07-13.54-25.57-.68-1.24-.63-2.23-.11-3.42,3.73-8.39,7.33-16.84,11.06-25.24.64-1.41.54-2.52-.2-3.9-3.18-5.92-6.27-11.88-9.41-17.82-1.15-2.19-2.28-4.37-3.52-6.72.72-.03,1.2-.09,1.69-.09,7.33,0,14.64.02,21.94-.06,1.3-.01,1.98.44,2.58,1.6,4.07,7.79,8.17,15.59,12.33,23.35.63,1.16.66,2.09.13,3.27-3.72,8.44-7.38,16.94-11.1,25.37-.61,1.34-.57,2.42.15,3.75,4.35,8.17,8.64,16.37,12.93,24.58.33.59.58,1.24.92,1.99-.52.07-.79.13-1.07.12-7.69,0-15.4.03-23.1-.03-.57-.01-1.41-.63-1.7-1.18ZM130.49,71.87c-.57-1.05-.61-1.9-.14-2.96,3.75-8.48,7.42-17.03,11.17-25.51.58-1.33.59-2.44-.15-3.77-3.87-7.21-7.65-14.45-11.47-21.68-.41-.78-.78-1.59-1.22-2.47.38-.05.59-.14.79-.13,7.8,0,15.63.03,23.42-.04,1.12,0,1.41.69,1.8,1.43,4,7.58,8,15.17,12.07,22.72.73,1.36.82,2.47.19,3.85-3.69,8.29-7.23,16.64-10.95,24.94-.68,1.51-.58,2.73.21,4.19,4.38,8.23,8.7,16.47,13,24.73.83,1.58.55,2.15-1.22,2.14-7.41.03-14.82.03-22.25,0-.41-.02-1.01-.41-1.22-.78-4.69-8.88-9.34-17.78-14.04-26.66Z"/>
    </g>
  </g>
</svg>